{
  "accessors": [
    {
      "bufferView": 0,
      "byteOffset": 0,
      "componentType": 5123,
      "count": 204,
      "type": "SCALAR",
      "max": [
        203
      ],
      "min": [
        0
      ]
    },
    {
      "bufferView": 1,
      "byteOffset": 0,
      "componentType": 5126,
      "count": 204,
      "type": "VEC3",
      "max": [
        6496,
        6500,
        6504
      ],
      "min": [
        0.00006103515625,
        4.00006103515625,
        8.00006103515625
      ]
    },
    {
      "bufferView": 1,
      "byteOffset": 12,
      "componentType": 5126,
      "count": 204,
      "type": "VEC3",
      "max": [
        6508,
        6512,
        6516
      ],
      "min": [
        12.00006103515625,
        16.00006103515625,
        20.00006103515625
      ]
    },
    {
      "bufferView": 1,
      "byteOffset": 24,
      "componentType": 5126,
      "count": 204,
      "type": "VEC2",
      "max": [
        6520,
        6524
      ],
      "min": [
        24.00006103515625,
        28.00006103515625
      ]
    },
    {
      "bufferView": 0,
      "byteOffset": 408,
      "componentType": 5123,
      "count": 28440,
      "type": "SCALAR",
      "max": [
        28439
      ],
      "min": [
        0
      ]
    },
    {
      "bufferView": 2,
      "byteOffset": 0,
      "componentType": 5126,
      "count": 28440,
      "type": "VEC3",
      "max": [
        910047.9375,
        910051.9375,
        910055.9375
      ],
      "min": [
        -0.0785675048828125,
        3.9214324951171875,
        7.9214324951171875
      ]
    },
    {
      "bufferView": 2,
      "byteOffset": 12,
      "componentType": 5126,
      "count": 28440,
      "type": "VEC3",
      "max": [
        910059.9375,
        910063.9375,
        910067.9375
      ],
      "min": [
        11.921432495117188,
        15.921432495117188,
        19.921432495117188
      ]
    },
    {
      "bufferView": 2,
      "byteOffset": 24,
      "componentType": 5126,
      "count": 28440,
      "type": "VEC2",
      "max": [
        910071.9375,
        910075.9375
      ],
      "min": [
        23.921432495117188,
        27.921432495117188
      ]
    },
    {
      "bufferView": 0,
      "byteOffset": 57288,
      "componentType": 5123,
      "count": 11088,
      "type": "SCALAR",
      "max": [
        11087
      ],
      "min": [
        0
      ]
    },
    {
      "bufferView": 3,
      "byteOffset": 0,
      "componentType": 5126,
      "count": 11088,
      "type": "VEC3",
      "max": [
        355315.8125,
        355319.8125,
        355323.8125
      ],
      "min": [
        531.8114624023438,
        535.8114624023438,
        539.8114624023438
      ]
    },
    {
      "bufferView": 3,
      "byteOffset": 12,
      "componentType": 5126,
      "count": 11088,
      "type": "VEC3",
      "max": [
        355327.8125,
        355331.8125,
        355335.8125
      ],
      "min": [
        543.8114624023438,
        547.8114624023438,
        551.8114624023438
      ]
    },
    {
      "bufferView": 3,
      "byteOffset": 24,
      "componentType": 5126,
      "count": 11088,
      "type": "VEC2",
      "max": [
        355339.8125,
        355343.8125
      ],
      "min": [
        555.8114624023438,
        559.8114624023438
      ]
    },
    {
      "bufferView": 0,
      "byteOffset": 79464,
      "componentType": 5123,
      "count": 9015,
      "type": "SCALAR",
      "max": [
        9014
      ],
      "min": [
        0
      ]
    },
    {
      "bufferView": 4,
      "byteOffset": 0,
      "componentType": 5126,
      "count": 9015,
      "type": "VEC3",
      "max": [
        216314.390625,
        216318.390625,
        216322.390625
      ],
      "min": [
        -21.60895538330078,
        -17.60895538330078,
        -13.608955383300781
      ]
    },
    {
      "bufferView": 4,
      "byteOffset": 12,
      "componentType": 5126,
      "count": 9015,
      "type": "VEC3",
      "max": [
        216326.390625,
        216330.390625,
        216334.390625
      ],
      "min": [
        -9.608955383300781,
        -5.608955383300781,
        -1.6089553833007812
      ]
    },
    {
      "bufferView": 0,
      "byteOffset": 97496,
      "componentType": 5123,
      "count": 4632,
      "type": "SCALAR",
      "max": [
        4631
      ],
      "min": [
        0
      ]
    },
    {
      "bufferView": 5,
      "byteOffset": 0,
      "componentType": 5126,
      "count": 4632,
      "type": "VEC3",
      "max": [
        148121.4375,
        148125.4375,
        148129.4375
      ],
      "min": [
        -70.5654067993164,
        -66.5654067993164,
        -62.565406799316406
      ]
    },
    {
      "bufferView": 5,
      "byteOffset": 12,
      "componentType": 5126,
      "count": 4632,
      "type": "VEC3",
      "max": [
        148133.4375,
        148137.4375,
        148141.4375
      ],
      "min": [
        -58.565406799316406,
        -54.565406799316406,
        -50.565406799316406
      ]
    },
    {
      "bufferView": 5,
      "byteOffset": 24,
      "componentType": 5126,
      "count": 4632,
      "type": "VEC2",
      "max": [
        148145.4375,
        148149.4375
      ],
      "min": [
        -46.565406799316406,
        -42.565406799316406
      ]
    },
    {
      "bufferView": 0,
      "byteOffset": 106760,
      "componentType": 5123,
      "count": 612,
      "type": "SCALAR",
      "max": [
        611
      ],
      "min": [
        0
      ]
    },
    {
      "bufferView": 6,
      "byteOffset": 0,
      "componentType": 5126,
      "count": 612,
      "type": "VEC3",
      "max": [
        19649.6171875,
        19653.6171875,
        19657.6171875
      ],
      "min": [
        97.6173324584961,
        101.6173324584961,
        105.6173324584961
      ]
    },
    {
      "bufferView": 6,
      "byteOffset": 12,
      "componentType": 5126,
      "count": 612,
      "type": "VEC3",
      "max": [
        19661.6171875,
        19665.6171875,
        19669.6171875
      ],
      "min": [
        109.6173324584961,
        113.6173324584961,
        117.6173324584961
      ]
    },
    {
      "bufferView": 6,
      "byteOffset": 24,
      "componentType": 5126,
      "count": 612,
      "type": "VEC2",
      "max": [
        19673.6171875,
        19677.6171875
      ],
      "min": [
        121.6173324584961,
        125.6173324584961
      ]
    },
    {
      "bufferView": 0,
      "byteOffset": 107984,
      "componentType": 5123,
      "count": 2148,
      "type": "SCALAR",
      "max": [
        2147
      ],
      "min": [
        0
      ]
    },
    {
      "bufferView": 7,
      "byteOffset": 0,
      "componentType": 5126,
      "count": 2148,
      "type": "VEC3",
      "max": [
        68797.3359375,
        68801.3359375,
        68805.3359375
      ],
      "min": [
        93.33575439453125,
        97.33575439453125,
        101.33575439453125
      ]
    },
    {
      "bufferView": 7,
      "byteOffset": 12,
      "componentType": 5126,
      "count": 2148,
      "type": "VEC3",
      "max": [
        68809.3359375,
        68813.3359375,
        68817.3359375
      ],
      "min": [
        105.33575439453125,
        109.33575439453125,
        113.33575439453125
      ]
    },
    {
      "bufferView": 7,
      "byteOffset": 24,
      "componentType": 5126,
      "count": 2148,
      "type": "VEC2",
      "max": [
        68821.3359375,
        68825.3359375
      ],
      "min": [
        117.33575439453125,
        121.33575439453125
      ]
    },
    {
      "bufferView": 0,
      "byteOffset": 112280,
      "componentType": 5123,
      "count": 2436,
      "type": "SCALAR",
      "max": [
        2435
      ],
      "min": [
        0
      ]
    },
    {
      "bufferView": 8,
      "byteOffset": 0,
      "componentType": 5126,
      "count": 2436,
      "type": "VEC3",
      "max": [
        78465.59375,
        78469.59375,
        78473.59375
      ],
      "min": [
        545.5972900390625,
        549.5972900390625,
        553.5972900390625
      ]
    },
    {
      "bufferView": 8,
      "byteOffset": 12,
      "componentType": 5126,
      "count": 2436,
      "type": "VEC3",
      "max": [
        78477.59375,
        78481.59375,
        78485.59375
      ],
      "min": [
        557.5972900390625,
        561.5972900390625,
        565.5972900390625
      ]
    },
    {
      "bufferView": 8,
      "byteOffset": 24,
      "componentType": 5126,
      "count": 2436,
      "type": "VEC2",
      "max": [
        78489.59375,
        78493.59375
      ],
      "min": [
        569.5972900390625,
        573.5972900390625
      ]
    },
    {
      "bufferView": 0,
      "byteOffset": 117152,
      "componentType": 5123,
      "count": 8196,
      "type": "SCALAR",
      "max": [
        8195
      ],
      "min": [
        0
      ]
    },
    {
      "bufferView": 9,
      "byteOffset": 0,
      "componentType": 5126,
      "count": 8196,
      "type": "VEC3",
      "max": [
        262241.6875,
        262245.6875,
        262249.6875
      ],
      "min": [
        1.679044485092163,
        5.679044723510742,
        9.679044723510742
      ]
    },
    {
      "bufferView": 9,
      "byteOffset": 12,
      "componentType": 5126,
      "count": 8196,
      "type": "VEC3",
      "max": [
        262253.6875,
        262257.6875,
        262261.6875
      ],
      "min": [
        13.679044723510742,
        17.679044723510742,
        21.679044723510742
      ]
    },
    {
      "bufferView": 9,
      "byteOffset": 24,
      "componentType": 5126,
      "count": 8196,
      "type": "VEC2",
      "max": [
        262265.6875,
        262269.6875
      ],
      "min": [
        25.679044723510742,
        29.679044723510742
      ]
    },
    {
      "bufferView": 0,
      "byteOffset": 133544,
      "componentType": 5123,
      "count": 8556,
      "type": "SCALAR",
      "max": [
        8555
      ],
      "min": [
        0
      ]
    },
    {
      "bufferView": 10,
      "byteOffset": 0,
      "componentType": 5126,
      "count": 8556,
      "type": "VEC3",
      "max": [
        205575.546875,
        205579.546875,
        205583.546875
      ],
      "min": [
        255.5492401123047,
        259.54925537109375,
        263.54925537109375
      ]
    },
    {
      "bufferView": 10,
      "byteOffset": 12,
      "componentType": 5126,
      "count": 8556,
      "type": "VEC3",
      "max": [
        205587.546875,
        205591.546875,
        205595.546875
      ],
      "min": [
        267.54925537109375,
        271.54925537109375,
        275.54925537109375
      ]
    }
  ],
  "asset": {
    "generator": "Aspose.3D 20.8",
    "version": "2.0"
  },
  "buffers": [
    {
      "uri": "smarttv_data.bin",
      "byteLength": 2420552
    }
  ],
  "bufferViews": [
    {
      "buffer": 0,
      "byteOffset": 0,
      "byteLength": 150656,
      "target": 34963
    },
    {
      "buffer": 0,
      "byteOffset": 150656,
      "byteLength": 6528,
      "byteStride": 32,
      "target": 34962
    },
    {
      "buffer": 0,
      "byteOffset": 157184,
      "byteLength": 910080,
      "byteStride": 32,
      "target": 34962
    },
    {
      "buffer": 0,
      "byteOffset": 1067264,
      "byteLength": 354816,
      "byteStride": 32,
      "target": 34962
    },
    {
      "buffer": 0,
      "byteOffset": 1422080,
      "byteLength": 216360,
      "byteStride": 24,
      "target": 34962
    },
    {
      "buffer": 0,
      "byteOffset": 1638440,
      "byteLength": 148224,
      "byteStride": 32,
      "target": 34962
    },
    {
      "buffer": 0,
      "byteOffset": 1786664,
      "byteLength": 19584,
      "byteStride": 32,
      "target": 34962
    },
    {
      "buffer": 0,
      "byteOffset": 1806248,
      "byteLength": 68736,
      "byteStride": 32,
      "target": 34962
    },
    {
      "buffer": 0,
      "byteOffset": 1874984,
      "byteLength": 77952,
      "byteStride": 32,
      "target": 34962
    },
    {
      "buffer": 0,
      "byteOffset": 1952936,
      "byteLength": 262272,
      "byteStride": 32,
      "target": 34962
    },
    {
      "buffer": 0,
      "byteOffset": 2215208,
      "byteLength": 205344,
      "byteStride": 24,
      "target": 34962
    }
  ],
  "materials": [
    {
      "pbrMetallicRoughness": {
        "baseColorFactor": [
          0.06666667014360428,
          0.06666667014360428,
          0.06666667014360428,
          1
        ],
        "metallicFactor": 0,
        "roughnessFactor": 0
      },
      "emissiveFactor": [
        0,
        0,
        0
      ],
      "alphaMode": "OPAQUE",
      "doubleSided": false
    },
    {
      "pbrMetallicRoughness": {
        "baseColorFactor": [
          0.019607843831181526,
          0.019607843831181526,
          0.019607843831181526,
          1
        ],
        "metallicFactor": 0,
        "roughnessFactor": 0
      },
      "emissiveFactor": [
        0,
        0,
        0
      ],
      "alphaMode": "OPAQUE",
      "doubleSided": false
    },
    {
      "pbrMetallicRoughness": {
        "baseColorFactor": [
          0.019607843831181526,
          0.019607843831181526,
          0.019607843831181526,
          1
        ],
        "metallicFactor": 0,
        "roughnessFactor": 0
      },
      "emissiveFactor": [
        0,
        0,
        0
      ],
      "alphaMode": "OPAQUE",
      "doubleSided": false
    },
    {
      "pbrMetallicRoughness": {
        "baseColorFactor": [
          0.5882353186607361,
          0.5882353186607361,
          0.5882353186607361,
          1
        ],
        "metallicFactor": 0,
        "roughnessFactor": 0
      },
      "emissiveFactor": [
        0,
        0,
        0
      ],
      "alphaMode": "OPAQUE",
      "doubleSided": false
    },
    {
      "pbrMetallicRoughness": {
        "baseColorFactor": [
          0.027450982481241226,
          0.027450982481241226,
          0.027450982481241226,
          1
        ],
        "metallicFactor": 0,
        "roughnessFactor": 0
      },
      "emissiveFactor": [
        0,
        0,
        0
      ],
      "alphaMode": "OPAQUE",
      "doubleSided": false
    },
    {
      "pbrMetallicRoughness": {
        "baseColorFactor": [
          0.027450982481241226,
          0.027450982481241226,
          0.027450982481241226,
          1
        ],
        "metallicFactor": 0,
        "roughnessFactor": 0
      },
      "emissiveFactor": [
        0,
        0,
        0
      ],
      "alphaMode": "OPAQUE",
      "doubleSided": false
    },
    {
      "pbrMetallicRoughness": {
        "baseColorFactor": [
          0.027450982481241226,
          0.027450982481241226,
          0.027450982481241226,
          1
        ],
        "metallicFactor": 0,
        "roughnessFactor": 0
      },
      "emissiveFactor": [
        0,
        0,
        0
      ],
      "alphaMode": "OPAQUE",
      "doubleSided": false
    },
    {
      "pbrMetallicRoughness": {
        "baseColorFactor": [
          0.5882353186607361,
          0.5882353186607361,
          0.5882353186607361,
          1
        ],
        "metallicFactor": 0,
        "roughnessFactor": 0
      },
      "emissiveFactor": [
        0,
        0,
        0
      ],
      "alphaMode": "OPAQUE",
      "doubleSided": false
    },
    {
      "pbrMetallicRoughness": {
        "baseColorFactor": [
          0.09803922474384308,
          0.09803922474384308,
          0.09803922474384308,
          1
        ],
        "metallicFactor": 0,
        "roughnessFactor": 0
      },
      "emissiveFactor": [
        0,
        0,
        0
      ],
      "alphaMode": "OPAQUE",
      "doubleSided": false
    },
    {
      "pbrMetallicRoughness": {
        "baseColorFactor": [
          0.5882353186607361,
          0.5882353186607361,
          0.5882353186607361,
          1
        ],
        "metallicFactor": 0,
        "roughnessFactor": 0
      },
      "emissiveFactor": [
        0,
        0,
        0
      ],
      "alphaMode": "OPAQUE",
      "doubleSided": false
    }
  ],
  "meshes": [
    {
      "primitives": [
        {
          "attributes": {
            "POSITION": 1,
            "NORMAL": 2,
            "TEXCOORD_0": 3
          },
          "indices": 0,
          "material": 0,
          "mode": 4
        }
      ]
    },
    {
      "primitives": [
        {
          "attributes": {
            "POSITION": 5,
            "NORMAL": 6,
            "TEXCOORD_0": 7
          },
          "indices": 4,
          "material": 1,
          "mode": 4
        }
      ]
    },
    {
      "primitives": [
        {
          "attributes": {
            "POSITION": 9,
            "NORMAL": 10,
            "TEXCOORD_0": 11
          },
          "indices": 8,
          "material": 2,
          "mode": 4
        }
      ]
    },
    {
      "primitives": [
        {
          "attributes": {
            "POSITION": 13,
            "NORMAL": 14
          },
          "indices": 12,
          "material": 3,
          "mode": 4
        }
      ]
    },
    {
      "primitives": [
        {
          "attributes": {
            "POSITION": 16,
            "NORMAL": 17,
            "TEXCOORD_0": 18
          },
          "indices": 15,
          "material": 4,
          "mode": 4
        }
      ]
    },
    {
      "primitives": [
        {
          "attributes": {
            "POSITION": 20,
            "NORMAL": 21,
            "TEXCOORD_0": 22
          },
          "indices": 19,
          "material": 5,
          "mode": 4
        }
      ]
    },
    {
      "primitives": [
        {
          "attributes": {
            "POSITION": 24,
            "NORMAL": 25,
            "TEXCOORD_0": 26
          },
          "indices": 23,
          "material": 6,
          "mode": 4
        }
      ]
    },
    {
      "primitives": [
        {
          "attributes": {
            "POSITION": 28,
            "NORMAL": 29,
            "TEXCOORD_0": 30
          },
          "indices": 27,
          "material": 7,
          "mode": 4
        }
      ]
    },
    {
      "primitives": [
        {
          "attributes": {
            "POSITION": 32,
            "NORMAL": 33,
            "TEXCOORD_0": 34
          },
          "indices": 31,
          "material": 8,
          "mode": 4
        }
      ]
    },
    {
      "primitives": [
        {
          "attributes": {
            "POSITION": 36,
            "NORMAL": 37
          },
          "indices": 35,
          "material": 9,
          "mode": 4
        }
      ]
    }
  ],
  "nodes": [
    {
      "matrix": [
        0.9999999999999847,
        1.7484555314694907e-7,
        0,
        0,
        -1.7484555314694642e-7,
        0.9999999999999695,
        -1.748455531469464e-7,
        0,
        -3.057096745526212e-14,
        1.7484555314694375e-7,
        0.9999999999999847,
        0,
        -0.0001220703125,
        -23.164342880249023,
        25.828857421875,
        1
      ],
      "mesh": 0,
      "name": "screen"
    },
    {
      "matrix": [
        1,
        0,
        0,
        0,
        0,
        0.9999999999999847,
        1.7484555314694907e-7,
        0,
        0,
        -1.7484555314694907e-7,
        0.9999999999999847,
        0,
        0,
        5.097214698791504,
        15.2371826171875,
        1
      ],
      "mesh": 1,
      "name": "main body"
    },
    {
      "matrix": [
        1,
        0,
        0,
        0,
        0,
        1,
        0,
        0,
        0,
        0,
        1,
        0,
        -0.01904296875,
        -7.80891227722168,
        158.81878662109375,
        1
      ],
      "mesh": 2,
      "name": "bolts"
    },
    {
      "matrix": [
        1,
        0,
        0,
        0,
        0,
        1,
        0,
        0,
        0,
        0,
        1,
        0,
        -0.0057373046875,
        -23.655879974365234,
        -289.7448425292969,
        1
      ],
      "mesh": 3,
      "name": "logo"
    },
    {
      "matrix": [
        1,
        0,
        0,
        0,
        0,
        1,
        0,
        0,
        0,
        0,
        1,
        0,
        -0.1214599609375,
        -13.80305290222168,
        -302.6751708984375,
        1
      ],
      "mesh": 4,
      "name": "object"
    },
    {
      "matrix": [
        1,
        0,
        0,
        0,
        0,
        1,
        0,
        0,
        0,
        0,
        1,
        0,
        -0.0809326171875,
        -13.337625503540039,
        -299.83599853515625,
        1
      ],
      "mesh": 5,
      "name": "metal"
    },
    {
      "matrix": [
        1,
        0,
        0,
        0,
        0,
        1,
        0,
        0,
        0,
        0,
        1,
        0,
        -0.0787353515625,
        -13.307052612304688,
        -302.5046081542969,
        1
      ],
      "mesh": 6,
      "name": "glass"
    },
    {
      "matrix": [
        1,
        0,
        0,
        0,
        0,
        0.9999999999999847,
        -1.7484555314694907e-7,
        0,
        0,
        1.7484555314694907e-7,
        0.9999999999999847,
        0,
        0,
        -17.949268341064453,
        19.50115966796875,
        1
      ],
      "mesh": 7,
      "name": "upper metal"
    },
    {
      "matrix": [
        -1.6292068494294654e-7,
        -0.9999999999999867,
        -5.551115123125783e-17,
        0,
        -1.6292068488743539e-7,
        2.6423307986078726e-14,
        0.9999999999999867,
        0,
        -0.9999999999999736,
        1.6292068488743539e-7,
        -1.6292068494294654e-7,
        0,
        -260.567626953125,
        82.64573669433594,
        -334.3003845214844,
        1
      ],
      "mesh": 8,
      "name": "rubbers"
    },
    {
      "matrix": [
        1,
        0,
        0,
        0,
        0,
        1,
        0,
        0,
        0,
        0,
        1,
        0,
        -0.2540283203125,
        -8.828962326049805,
        -321.2696533203125,
        1
      ],
      "mesh": 9,
      "name": "leg"
    },
    {
      "children": [
        0,
        1,
        2,
        3,
        4,
        5,
        6,
        7,
        8,
        9
      ],
      "matrix": [
        1,
        0,
        0,
        0,
        0,
        -2.220446049250313e-16,
        -1.0000000000000002,
        0,
        0,
        1.0000000000000002,
        -2.220446049250313e-16,
        0,
        -611.6947021484375,
        337.2941589355469,
        -0.000003814697265625,
        1
      ],
      "name": "086"
    }
  ],
  "scene": 0,
  "scenes": [
    {
      "nodes": [
        10
      ]
    }
  ]
}