{
  "asset": {
    "version": "2.0",
    "generator": "THREE.GLTFExporter"
  },
  "scenes": [
    {
      "nodes": [
        2
      ],
      "name": "AuxScene"
    }
  ],
  "scene": 0,
  "nodes": [
    {
      "matrix": [
        65.48618697104817,
        44.52454086844426,
        61.06655857707355,
        0,
        -31.73701275120342,
        89.53432428981057,
        -31.246868572658432,
        0,
        -68.58805535676653,
        1.0816812937618547,
        72.76337422052289,
        0,
        1555.0594482421875,
        534.3665161132812,
        650.7639770507812,
        1
      ],
      "name": "Camera",
      "camera": 0
    },
    {
      "matrix": [
        100,
        0,
        0,
        0,
        0,
        -0.000016292067961387602,
        -99.99999999999868,
        0,
        0,
        99.99999999999868,
        -0.000016292067961387602,
        0,
        -60.91185760498047,
        477.8559265136719,
        3.7876460552215576,
        1
      ],
      "name": "Cube",
      "mesh": 0
    },
    {
      "children": [
        0,
        1
      ]
    }
  ],
  "cameras": [
    {
      "type": "perspective",
      "perspective": {
        "aspectRatio": 1.7777777777777777,
        "yfov": 0.30843838250961614,
        "zfar": 10,
        "znear": 0.010000000149011612
      },
      "name": "PerspectiveCamera"
    }
  ],
  "bufferViews": [
    {
      "buffer": 0,
      "byteOffset": 0,
      "byteLength": 90612,
      "target": 34962,
      "byteStride": 12
    },
    {
      "buffer": 0,
      "byteOffset": 90612,
      "byteLength": 90612,
      "target": 34962,
      "byteStride": 12
    },
    {
      "buffer": 0,
      "byteOffset": 181224,
      "byteLength": 60408,
      "target": 34962,
      "byteStride": 8
    },
    {
      "buffer": 0,
      "byteOffset": 241632,
      "byteLength": 15104,
      "target": 34963
    }
  ],
  "buffers": [
    {
      "uri": "speaker_data.bin",
      "byteLength": 256736
    }
  ],
  "accessors": [
    {
      "bufferView": 0,
      "componentType": 5126,
      "count": 7551,
      "max": [
        0.5822147727012634,
        1.6940667629241943,
        4.872486114501953
      ],
      "min": [
        -2.840763568878174,
        -1.6300128698349,
        -4.849246501922607
      ],
      "type": "VEC3"
    },
    {
      "bufferView": 1,
      "componentType": 5126,
      "count": 7551,
      "max": [
        1,
        1,
        1
      ],
      "min": [
        -1,
        -1,
        -1
      ],
      "type": "VEC3"
    },
    {
      "bufferView": 2,
      "componentType": 5126,
      "count": 7551,
      "max": [
        1,
        1
      ],
      "min": [
        0,
        0
      ],
      "type": "VEC2"
    },
    {
      "bufferView": 3,
      "componentType": 5123,
      "count": 7551,
      "max": [
        7550
      ],
      "min": [
        0
      ],
      "type": "SCALAR"
    }
  ],
  "materials": [
    {
      "pbrMetallicRoughness": {
        "baseColorFactor": [
          0.800000011920929,
          0.800000011920929,
          0.800000011920929,
          1
        ],
        "metallicFactor": 0.5,
        "roughnessFactor": 0.5,
        "baseColorTexture": {
          "index": 0
        }
      },
      "name": "Material"
    }
  ],
  "textures": [
    {
      "sampler": 0,
      "source": 0
    }
  ],
  "samplers": [
    {
      "magFilter": 9729,
      "minFilter": 9987
    }
  ],
  "images": [
    {
      "uri": "speaker_img0.jpg"
    }
  ],
  "meshes": [
    {
      "primitives": [
        {
          "mode": 4,
          "attributes": {
            "POSITION": 0,
            "NORMAL": 1,
            "TEXCOORD_0": 2
          },
          "indices": 3,
          "material": 0
        }
      ]
    }
  ]
}